<?xml version="1.0" encoding="utf-8"?>
<!-- Generator: Adobe Illustrator 16.0.0, SVG Export Plug-In . SVG Version: 6.00 Build 0)  -->
<!DOCTYPE svg PUBLIC "-//W3C//DTD SVG 1.1//EN" "http://www.w3.org/Graphics/SVG/1.1/DTD/svg11.dtd">
<svg version="1.1" id="Layer_1" xmlns="http://www.w3.org/2000/svg" xmlns:xlink="http://www.w3.org/1999/xlink" x="0px" y="0px"
	 width="1000px" height="1000px" fill="white" viewBox="0 0 1000 1000" enable-background="new 0 0 1000 1000" xml:space="preserve">
<path d="M897.896,397.894H602.104V102.106C602.104,45.263,556.844,0,500,0c-56.842,0-102.104,45.263-102.104,102.106v295.788
	h-295.79C45.263,397.894,0,443.158,0,500c0,28.42,11.579,53.684,29.474,72.631c18.948,18.947,44.21,29.474,72.632,29.474h295.79
	v295.791c0,28.42,11.579,53.684,29.473,72.63C446.316,989.475,471.58,1000,500,1000c56.844,0,102.104-45.264,102.104-102.104
	V602.104h295.791C954.736,602.104,1000,556.843,1000,500C1000,443.158,954.736,397.894,897.896,397.894z"/>
</svg>
