<?xml version="1.0" encoding="utf-8"?>
<!-- Generator: Adobe Illustrator 16.0.0, SVG Export Plug-In . SVG Version: 6.00 Build 0)  -->
<!DOCTYPE svg PUBLIC "-//W3C//DTD SVG 1.1//EN" "http://www.w3.org/Graphics/SVG/1.1/DTD/svg11.dtd">
<svg version="1.1" id="Layer_1" xmlns="http://www.w3.org/2000/svg" xmlns:xlink="http://www.w3.org/1999/xlink" x="0px" y="0px"
	 width="1000px" height="1000px" fill="white" viewBox="0 0 1000 1000" enable-background="new 0 0 1000 1000" xml:space="preserve">
<title>Delete 2.4</title>
<desc>Created with Sketch.</desc>
<g>
	<g>
		<path d="M781.766,179.898L754.97,903.387c-0.461,12.417-11.396,22.936-23.866,22.936H268.139
			c-12.458,0-23.407-10.557-23.866-22.936l-26.795-723.488c-0.74-19.962-17.521-35.545-37.483-34.806
			c-19.962,0.739-35.545,17.521-34.806,37.483l26.796,723.488c1.898,51.256,44.781,92.596,96.154,92.596h462.964
			c51.349,0,94.253-41.263,96.155-92.596l26.795-723.488c0.74-19.962-14.844-36.744-34.804-37.483
			C799.287,144.353,782.505,159.936,781.766,179.898z"/>
		<path d="M470.686,325.913v491.9c0,15.98,12.955,28.936,28.935,28.936c15.981,0,28.936-12.955,28.936-28.936v-491.9
			c0-15.98-12.954-28.935-28.936-28.935C483.641,296.978,470.686,309.933,470.686,325.913z"/>
		<path d="M311.555,326.764l14.468,491.9c0.469,15.974,13.8,28.542,29.773,28.072c15.974-0.47,28.543-13.8,28.072-29.773
			l-14.468-491.9c-0.468-15.974-13.799-28.542-29.772-28.072C323.653,297.461,311.083,310.79,311.555,326.764z"/>
		<path d="M629.843,325.062l-14.467,491.9c-0.471,15.974,12.098,29.304,28.072,29.773c15.974,0.47,29.304-12.099,29.771-28.072
			l14.469-491.9c0.471-15.974-12.099-29.303-28.071-29.773C643.644,296.521,630.312,309.088,629.843,325.062z"/>
		<path d="M137.93,195.704h723.384c19.975,0,36.169-16.193,36.169-36.168c0-19.977-16.194-36.17-36.169-36.17H137.93
			c-19.975,0-36.168,16.193-36.168,36.17C101.761,179.511,117.955,195.704,137.93,195.704z"/>
		<path d="M389.723,147.771l15.061-52.714c3.226-11.29,17.861-22.327,29.61-22.327H564.85c11.757,0,26.381,11.028,29.609,22.327
			l15.062,52.714l69.555-19.874l-15.061-52.713C651.911,32.825,608.898,0.391,564.85,0.391H434.394
			c-44.044,0-87.065,32.445-99.166,74.792l-15.061,52.713L389.723,147.771z"/>
	</g>
</g>
</svg>
